<?xml version="1.0" standalone="no"?>
<!DOCTYPE svg PUBLIC "-//W3C//DTD SVG 20010904//EN"
 "http://www.w3.org/TR/2001/REC-SVG-20010904/DTD/svg10.dtd">
<svg version="1.0" xmlns="http://www.w3.org/2000/svg"
 width="1000.000000pt" height="899.000000pt" viewBox="0 0 1000.000000 899.000000"
 preserveAspectRatio="xMidYMid meet">

<g transform="translate(0.000000,899.000000) scale(0.100000,-0.100000)"
fill="#000000" stroke="none">
<path d="M5996 6287 c-32 -41 -70 -125 -114 -247 -47 -134 -48 -137 -22 -145
30 -10 50 11 43 45 -6 30 12 92 58 205 29 70 29 71 64 67 30 -4 35 -1 41 22 3
14 8 26 11 26 2 0 144 -64 316 -141 172 -78 348 -157 392 -176 139 -61 106
-56 -90 13 -679 237 -638 228 -642 143 -1 -24 -17 -109 -37 -188 -47 -187 -46
-212 4 -196 21 7 27 34 10 51 -13 13 54 297 70 302 13 5 37 29 42 42 2 6 126
-32 293 -91 160 -55 324 -112 365 -126 83 -28 101 -39 77 -48 -8 -4 -129 27
-269 68 -139 41 -279 80 -310 87 -31 6 -62 18 -68 26 -7 7 -22 14 -34 14 -42
0 -59 -40 -34 -79 9 -15 9 -47 -2 -143 -18 -170 -18 -172 2 -176 21 -4 112 59
116 81 5 25 -16 21 -52 -10 l-31 -26 -3 28 c-2 16 1 73 8 127 14 122 29 144
94 134 35 -6 432 -120 506 -145 14 -5 33 -12 42 -15 11 -3 15 -11 12 -21 -3
-8 -9 -13 -13 -11 -3 2 -62 14 -131 25 -249 43 -323 61 -342 81 -10 11 -30 20
-43 20 -44 0 -59 -71 -17 -84 21 -7 92 -146 92 -181 0 -30 14 -39 46 -31 18 5
31 21 48 59 13 28 21 55 19 60 -10 18 -32 4 -43 -28 -6 -19 -16 -35 -21 -35
-11 0 -79 133 -79 155 0 21 9 20 254 -26 l219 -41 42 -44 c32 -34 49 -44 73
-44 35 0 13 33 295 -456 l155 -272 -14 -42 c-13 -38 -13 -46 3 -79 11 -22 32
-43 54 -54 34 -16 39 -25 62 -100 125 -410 157 -517 157 -529 0 -8 -11 -20
-25 -26 -13 -6 -36 -29 -51 -52 -15 -22 -34 -40 -43 -40 -9 0 -158 -16 -331
-35 -173 -19 -380 -42 -460 -51 -80 -8 -150 -17 -157 -19 -6 -2 -19 7 -28 21
-40 61 -130 82 -192 44 -47 -28 -67 -65 -67 -125 -2 -123 129 -185 231 -109
17 13 36 39 43 58 13 39 -32 31 410 80 168 19 369 42 448 51 l142 17 30 -26
c83 -69 217 -31 235 67 9 47 -17 93 -66 119 -34 17 -38 25 -67 121 -17 56 -54
179 -82 272 -81 262 -84 276 -74 283 24 16 44 59 44 94 0 55 -42 98 -101 105
l-45 5 -71 127 c-40 69 -133 232 -207 361 -117 203 -135 239 -130 266 4 20 0
43 -10 62 -29 57 -35 60 -780 395 -104 47 -193 93 -198 101 -14 26 -45 18 -72
-17z"/>
<path d="M2140 3575 l0 -345 65 0 65 0 2 203 c1 111 2 216 2 234 1 17 3 34 6
36 3 3 48 -48 100 -114 52 -65 100 -118 106 -116 6 1 53 52 104 112 50 61 96
112 101 113 5 2 9 -96 9 -232 l0 -236 65 0 65 0 0 345 0 345 -52 0 c-29 0 -58
-4 -63 -8 -6 -4 -59 -64 -119 -134 -59 -71 -109 -128 -110 -128 -1 0 -51 61
-111 135 l-110 134 -62 1 -63 0 0 -345z"/>
<path d="M3184 3905 c-168 -36 -273 -156 -282 -321 -8 -148 54 -258 185 -326
257 -132 564 30 564 298 0 79 -14 133 -53 195 -76 125 -251 190 -414 154z
m222 -140 c57 -34 92 -86 105 -162 18 -100 -15 -178 -99 -238 -38 -26 -54 -30
-121 -33 -64 -3 -85 0 -124 18 -84 40 -129 114 -130 215 0 103 47 176 143 219
54 24 168 15 226 -19z"/>
<path d="M3627 3903 c-4 -3 -7 -28 -7 -55 l0 -48 120 0 120 0 0 -290 0 -290
65 0 65 0 0 290 0 290 125 0 125 0 0 50 0 50 -157 1 c-87 0 -224 3 -304 5 -80
2 -149 1 -152 -3z"/>
<path d="M4280 3560 l0 -340 65 0 65 0 1 323 c0 177 2 330 4 340 3 15 -5 17
-66 17 l-69 0 0 -340z"/>
<path d="M4716 3884 c-98 -31 -168 -94 -215 -194 -22 -46 -26 -69 -26 -140 0
-71 4 -94 26 -141 35 -75 96 -134 177 -172 62 -30 75 -32 172 -32 97 0 110 2
172 32 79 37 137 94 175 170 23 47 27 69 27 142 1 73 -3 95 -25 142 -37 79
-90 133 -167 171 -59 29 -76 33 -166 35 -70 2 -116 -2 -150 -13z m212 -109
c106 -32 169 -126 160 -240 -7 -81 -37 -136 -95 -177 -42 -29 -57 -33 -126
-36 -49 -3 -90 1 -110 9 -91 36 -147 121 -147 220 0 105 51 182 146 219 60 23
105 25 172 5z"/>
<path d="M5290 3555 l0 -345 65 0 65 0 2 240 3 241 199 -240 c183 -220 201
-239 234 -243 20 -3 46 -2 59 0 23 4 23 5 24 191 0 102 2 255 4 339 l3 152
-64 0 c-63 0 -64 0 -65 -27 0 -16 -2 -84 -4 -153 -2 -69 -4 -160 -4 -203 -1
-53 -4 -76 -12 -72 -6 4 -45 49 -87 99 -42 51 -129 154 -192 229 l-115 137
-57 0 -58 0 0 -345z"/>
</g>
</svg>
